<svg xmlns="http://www.w3.org/2000/svg" xmlns:xlink="http://www.w3.org/1999/xlink" width="1000" zoomAndPan="magnify" viewBox="0 0 750 749.999995" height="1000" preserveAspectRatio="xMidYMid meet" version="1.0"><rect x="-75" width="900" fill="#ffffff" y="-74.999999" height="899.999994" fill-opacity="1"/><rect x="-75" width="900" fill="#ffffff" y="-74.999999" height="899.999994" fill-opacity="1"/><rect x="-75" width="900" fill="#000000" y="-74.999999" height="899.999994" fill-opacity="1"/><path fill="#494849" d="M 527.191406 193.078125 C 528.058594 227.503906 537.78125 259.359375 555.066406 289.011719 C 551.746094 255.292969 543.914062 222.886719 527.191406 193.078125 Z M 527.191406 193.078125 " fill-opacity="1" fill-rule="nonzero"/><path fill="#494849" d="M 499.914062 240.816406 C 495.945312 256.183594 493.402344 271.640625 495.808594 287.566406 C 497.640625 299.632812 502.328125 310.371094 510.40625 319.597656 C 511.351562 320.675781 511.738281 320.789062 512.601562 319.460938 C 518.738281 310.101562 524.199219 300.359375 529.523438 290.535156 C 531.488281 286.914062 533.496094 283.3125 535.589844 279.503906 C 535.828125 280.109375 536.003906 280.453125 536.113281 280.816406 C 538.710938 289.417969 541.328125 298.019531 543.855469 306.636719 C 544.265625 308.046875 544.589844 308.054688 545.601562 307.125 C 548.566406 304.394531 551.566406 301.710938 554.632812 299.109375 C 555.652344 298.246094 555.886719 297.703125 555.105469 296.429688 C 542.675781 276.246094 533.476562 254.722656 528.226562 231.570312 C 525.351562 218.886719 523.777344 206.046875 523.335938 192.503906 C 522.78125 193.507812 522.441406 194.09375 522.140625 194.691406 C 517.09375 204.71875 511.988281 214.71875 507.046875 224.789062 C 504.472656 230.039062 501.40625 235.050781 499.914062 240.816406 Z M 499.914062 240.816406 " fill-opacity="1" fill-rule="nonzero"/><path fill="#494849" d="M 545.519531 313.207031 C 546.128906 316.140625 546.734375 319.066406 547.34375 321.996094 C 549.21875 316.46875 551.332031 311.054688 553.207031 305.550781 C 553.066406 305.550781 552.886719 305.527344 552.796875 305.601562 C 550.484375 307.636719 548.199219 309.691406 545.871094 311.699219 C 545.347656 312.164062 545.40625 312.652344 545.519531 313.207031 Z M 545.519531 313.207031 " fill-opacity="1" fill-rule="nonzero"/><path fill="#494849" d="M 242.078125 322.15625 C 241.042969 323.296875 241.003906 323.992188 241.867188 325.238281 C 251.835938 339.652344 262.753906 353.308594 274.378906 366.414062 C 275.113281 367.238281 275.664062 367.335938 276.621094 366.816406 C 284.378906 362.664062 288.960938 356.191406 290.753906 347.664062 C 292.246094 340.546875 291.863281 333.414062 290.59375 326.332031 C 289.671875 321.179688 288.832031 316.003906 286.402344 311.234375 C 279.464844 297.59375 272.640625 283.898438 265.769531 270.226562 C 262.792969 264.292969 259.800781 258.359375 256.824219 252.433594 C 256.726562 252.441406 256.636719 252.441406 256.546875 252.449219 C 256.582031 252.832031 256.589844 253.222656 256.65625 253.605469 C 258.800781 264.886719 259.46875 276.234375 257.84375 287.625 C 255.984375 300.667969 250.949219 312.316406 242.078125 322.15625 Z M 242.078125 322.15625 " fill-opacity="1" fill-rule="nonzero"/><path fill="#494849" d="M 493.109375 252.472656 C 492.757812 253.191406 492.414062 253.90625 492.050781 254.617188 C 482.601562 273.433594 473.136719 292.246094 463.695312 311.0625 C 462.988281 312.457031 462.15625 313.835938 461.753906 315.324219 C 459.140625 324.863281 457.378906 334.515625 458.601562 344.460938 C 459.832031 354.421875 464.429688 362.167969 473.511719 366.953125 C 474.628906 367.546875 475.265625 367.546875 476.136719 366.511719 C 479.863281 362.046875 483.75 357.71875 487.476562 353.257812 C 494.960938 344.273438 502.003906 334.957031 508.65625 325.335938 C 509.378906 324.292969 509.316406 323.683594 508.460938 322.808594 C 507.21875 321.53125 506.078125 320.136719 504.988281 318.71875 C 493.027344 303.082031 490.09375 285.140625 491.601562 266.070312 C 491.960938 261.539062 492.703125 257.0625 493.109375 252.472656 Z M 493.109375 252.472656 " fill-opacity="1" fill-rule="nonzero"/><path fill="#494849" d="M 389.863281 400.117188 C 379.859375 405.511719 370.109375 405.511719 360.261719 400.207031 C 360.261719 400.597656 360.226562 400.867188 360.269531 401.113281 C 361.914062 411.140625 363.570312 421.164062 365.175781 431.199219 C 365.332031 432.179688 365.789062 432.328125 366.621094 432.328125 C 372.210938 432.308594 377.804688 432.300781 383.390625 432.335938 C 384.421875 432.34375 384.675781 431.933594 384.824219 430.996094 C 385.996094 423.609375 387.226562 416.226562 388.441406 408.847656 C 388.90625 406.019531 389.363281 403.183594 389.863281 400.117188 Z M 389.863281 400.117188 " fill-opacity="1" fill-rule="nonzero"/><path fill="#494849" d="M 366.480469 435.863281 C 365.773438 435.863281 365.199219 436.011719 364.648438 436.476562 C 362.511719 438.277344 360.359375 440.054688 358.183594 441.796875 C 357.441406 442.378906 357.488281 442.746094 358.214844 443.296875 C 360.578125 445.078125 362.910156 446.894531 365.226562 448.734375 C 365.8125 449.199219 366.421875 449.25 367.101562 449.25 C 369.78125 449.242188 372.457031 449.242188 375.136719 449.242188 C 377.8125 449.242188 380.722656 449.226562 383.511719 449.25 C 384.210938 449.257812 384.800781 449.136719 385.363281 448.671875 C 387.503906 446.878906 389.648438 445.09375 391.828125 443.355469 C 392.535156 442.792969 392.578125 442.433594 391.84375 441.847656 C 389.609375 440.078125 387.421875 438.253906 385.246094 436.425781 C 384.734375 435.988281 384.203125 435.863281 383.566406 435.863281 C 377.871094 435.878906 372.171875 435.886719 366.480469 435.863281 Z M 366.480469 435.863281 " fill-opacity="1" fill-rule="nonzero"/><path fill="#494849" d="M 395.023438 368.773438 C 396.253906 361.171875 397.441406 353.558594 398.640625 345.9375 C 398.765625 345.816406 398.835938 345.683594 398.65625 345.554688 C 398.625 345.554688 398.511719 345.675781 398.4375 345.742188 C 397.867188 346.078125 397.28125 346.402344 396.71875 346.761719 C 385.183594 354.03125 373.003906 355.027344 360.292969 350.445312 C 357.082031 349.289062 354.1875 347.476562 351.285156 345.523438 C 351.261719 345.855469 351.21875 346.019531 351.238281 346.175781 C 353.8125 361.941406 356.390625 377.707031 358.964844 393.472656 C 359.121094 394.453125 359.535156 395.175781 360.398438 395.773438 C 368.960938 401.78125 380.167969 401.949219 388.933594 396.226562 C 390.277344 395.355469 390.878906 394.289062 391.125 392.753906 C 392.378906 384.75 393.742188 376.769531 395.023438 368.773438 Z M 395.023438 368.773438 " fill-opacity="1" fill-rule="nonzero"/><path fill="#494849" d="M 348.441406 351.578125 C 347.78125 352.171875 347.722656 352.867188 347.484375 353.476562 C 345.148438 359.460938 341.542969 364.453125 336.097656 367.996094 C 332.046875 370.628906 327.570312 372.105469 322.828125 372.863281 C 322.027344 372.988281 321.441406 373.027344 322.003906 374.136719 C 327.253906 384.503906 332.460938 394.882812 337.65625 405.269531 C 337.972656 405.898438 338.355469 406.15625 339.058594 406.222656 C 346.253906 406.957031 351.667969 403.957031 354.929688 397.46875 C 355.515625 396.300781 355.636719 395.191406 355.425781 393.921875 C 354.089844 385.996094 352.800781 378.058594 351.496094 370.132812 C 350.484375 363.984375 349.46875 357.847656 348.441406 351.578125 Z M 348.441406 351.578125 " fill-opacity="1" fill-rule="nonzero"/><path fill="#494849" d="M 410.722656 406.246094 C 411.675781 406.175781 412.078125 405.742188 412.453125 404.984375 C 417.601562 394.703125 422.773438 384.425781 427.925781 374.144531 C 428.078125 373.835938 428.460938 373.53125 428.121094 373.042969 C 415.09375 371.234375 406.019531 364.441406 401.675781 351.414062 C 401.476562 352.164062 401.339844 352.53125 401.28125 352.914062 C 399.023438 366.683594 396.765625 380.453125 394.507812 394.222656 C 394.328125 395.308594 394.460938 396.285156 394.964844 397.289062 C 398.242188 403.898438 403.28125 406.761719 410.722656 406.246094 Z M 410.722656 406.246094 " fill-opacity="1" fill-rule="nonzero"/><path fill="#494849" d="M 430.988281 368.101562 C 438.609375 352.933594 446.226562 337.761719 453.839844 322.589844 C 454.980469 320.308594 456.097656 318.03125 457.289062 315.613281 C 433.3125 315.667969 419.910156 302.558594 413.175781 280.523438 C 412.589844 283.988281 412.09375 286.933594 411.609375 289.882812 C 409.304688 303.929688 406.949219 317.96875 404.738281 332.023438 C 404.046875 336.390625 402.9375 340.671875 403.824219 345.269531 C 406.574219 359.460938 414.710938 367.402344 428.949219 369.457031 C 430.328125 369.660156 430.566406 368.933594 430.988281 368.101562 Z M 430.988281 368.101562 " fill-opacity="1" fill-rule="nonzero"/><path fill="#494849" d="M 339.710938 275.316406 C 339.808594 276.046875 339.863281 276.59375 339.953125 277.140625 C 341.011719 283.582031 342.074219 290.023438 343.132812 296.46875 C 345.433594 310.515625 347.738281 324.570312 350.015625 338.617188 C 350.167969 339.570312 350.535156 340.230469 351.351562 340.769531 C 355.191406 343.289062 359.191406 345.523438 363.515625 347.078125 C 367.53125 348.511719 371.664062 349.6875 375.953125 349.371094 C 384.433594 348.75 391.867188 345.238281 398.8125 340.558594 C 399.457031 340.125 399.796875 339.609375 399.914062 338.804688 C 400.402344 335.601562 400.980469 332.421875 401.496094 329.21875 C 403.921875 314.398438 406.335938 299.578125 408.757812 284.761719 C 409.265625 281.648438 409.777344 278.527344 410.316406 275.234375 C 386.722656 287.902344 363.34375 287.933594 339.710938 275.316406 Z M 339.710938 275.316406 " fill-opacity="1" fill-rule="nonzero"/><path fill="#494849" d="M 336.699219 280.828125 C 330.292969 301.828125 317.339844 315.496094 292.71875 315.660156 C 293.054688 316.378906 293.300781 316.933594 293.574219 317.476562 C 299.460938 329.199219 305.355469 340.921875 311.242188 352.640625 C 313.875 357.886719 316.5 363.136719 319.140625 368.371094 C 319.417969 368.917969 319.523438 369.652344 320.503906 369.523438 C 325.199219 368.886719 329.714844 367.726562 333.765625 365.160156 C 340.761719 360.726562 344.121094 353.976562 345.800781 346.171875 C 346.304688 343.828125 346.808594 341.46875 346.410156 339.039062 C 343.5 321.292969 340.605469 303.554688 337.671875 285.816406 C 337.410156 284.234375 337.34375 282.59375 336.699219 280.828125 Z M 336.699219 280.828125 " fill-opacity="1" fill-rule="nonzero"/><path fill="#494849" d="M 294.765625 328.28125 C 294.765625 328.164062 294.832031 328.003906 294.585938 328.050781 C 294.644531 328.125 294.703125 328.207031 294.765625 328.28125 Z M 294.765625 328.28125 " fill-opacity="1" fill-rule="nonzero"/><path fill="#494849" d="M 278.941406 369.652344 C 278.054688 370.15625 278.0625 370.441406 278.714844 371.191406 C 286.746094 380.503906 296.0625 388.46875 305.234375 396.585938 C 305.773438 397.066406 306.300781 397.335938 307.042969 397.109375 C 312.113281 395.617188 315.75 392.699219 317.011719 387.308594 C 317.746094 384.203125 317.773438 381.105469 317.28125 377.984375 C 316.648438 373.964844 315.953125 369.988281 314.046875 366.285156 C 309.449219 357.335938 305.015625 348.316406 300.464844 339.34375 C 298.605469 335.691406 296.960938 331.921875 294.816406 328.417969 C 294.984375 333.136719 295.597656 337.824219 295.175781 342.570312 C 294.140625 354.253906 289.53125 363.734375 278.941406 369.652344 Z M 278.941406 369.652344 " fill-opacity="1" fill-rule="nonzero"/><path fill="#494849" d="M 333.421875 416.460938 C 335.023438 414.628906 335.675781 409.433594 334.558594 407.199219 C 330.433594 398.96875 326.300781 390.742188 322.15625 382.523438 C 321.953125 382.125 321.921875 381.554688 321.335938 381.390625 C 321.113281 391.214844 318.074219 396.621094 309.457031 400.320312 C 315.691406 405.847656 321.773438 411.277344 327.914062 416.632812 C 329.527344 418.042969 332.199219 417.847656 333.421875 416.460938 Z M 333.421875 416.460938 " fill-opacity="1" fill-rule="nonzero"/><path fill="#494849" d="M 347.820312 434.113281 C 347.859375 434.25 347.828125 434.511719 348.082031 434.257812 C 348 434.203125 347.925781 434.144531 347.84375 434.09375 C 347.925781 433.484375 347.535156 433.035156 347.296875 432.546875 C 344.96875 427.914062 342.636719 423.277344 340.304688 418.640625 C 339.652344 417.359375 339 416.085938 338.242188 414.601562 C 337.394531 417.660156 335.917969 419.925781 332.84375 421.050781 C 335.699219 423.585938 338.371094 426.015625 341.109375 428.378906 C 343.335938 430.296875 345.367188 432.449219 347.820312 434.113281 Z M 347.820312 434.113281 " fill-opacity="1" fill-rule="nonzero"/><path fill="#494849" d="M 361.140625 434.691406 C 361.785156 434.167969 361.933594 433.628906 361.792969 432.800781 C 360.441406 424.769531 359.152344 416.722656 357.824219 408.675781 C 357.472656 406.523438 357.074219 404.371094 356.632812 401.84375 C 352.46875 407.765625 346.914062 410.046875 340.019531 409.957031 C 345.050781 419.976562 349.996094 429.800781 354.988281 439.734375 C 357.164062 437.941406 359.128906 436.289062 361.140625 434.691406 Z M 361.140625 434.691406 " fill-opacity="1" fill-rule="nonzero"/><path fill="#494849" d="M 356.648438 468.136719 C 357.945312 463.921875 359.136719 460.042969 360.449219 455.789062 C 357.140625 457.964844 354.226562 459.886719 351.074219 461.949219 C 353.617188 463.460938 355.199219 465.5625 356.648438 468.136719 Z M 356.648438 468.136719 " fill-opacity="1" fill-rule="nonzero"/><path fill="#494849" d="M 390.128906 470.175781 C 388.371094 464.46875 386.699219 459.046875 385.042969 453.621094 C 384.855469 453 384.433594 452.925781 383.894531 452.925781 C 377.960938 452.925781 372.039062 452.925781 366.113281 452.925781 C 365.601562 452.925781 365.152344 452.902344 364.941406 453.578125 C 363.292969 459.007812 361.605469 464.429688 359.828125 470.191406 C 370.066406 465.675781 379.964844 465.683594 390.128906 470.175781 Z M 390.128906 470.175781 " fill-opacity="1" fill-rule="nonzero"/><path fill="#494849" d="M 399.195312 461.753906 C 395.925781 459.585938 392.78125 457.5 389.339844 455.226562 C 390.699219 459.613281 391.949219 463.6875 393.328125 468.179688 C 394.84375 465.367188 396.601562 463.261719 399.195312 461.753906 Z M 399.195312 461.753906 " fill-opacity="1" fill-rule="nonzero"/><path fill="#494849" d="M 393.316406 401.820312 C 391.558594 412.371094 389.878906 422.550781 388.191406 432.726562 C 388.078125 433.394531 388.003906 434.003906 388.664062 434.535156 C 390.757812 436.207031 392.804688 437.933594 394.988281 439.746094 C 400.027344 429.703125 404.949219 419.902344 409.941406 409.933594 C 402.921875 410.078125 397.386719 407.640625 393.316406 401.820312 Z M 393.316406 401.820312 " fill-opacity="1" fill-rule="nonzero"/><path fill="#494849" d="M 417.164062 421.019531 C 414.015625 419.917969 412.597656 417.621094 411.710938 414.546875 C 408.328125 421.296875 405.089844 427.746094 401.851562 434.203125 C 401.933594 434.265625 402.015625 434.332031 402.105469 434.390625 C 407.070312 429.984375 412.042969 425.574219 417.164062 421.019531 Z M 417.164062 421.019531 " fill-opacity="1" fill-rule="nonzero"/><path fill="#494849" d="M 422.714844 416.101562 C 424.222656 414.773438 425.730469 413.4375 427.238281 412.101562 C 431.625 408.203125 436.011719 404.300781 440.585938 400.238281 C 431.609375 396.914062 428.46875 390.15625 428.527344 381.34375 C 424.328125 389.453125 420.414062 397.550781 416.203125 405.496094 C 414.710938 408.316406 414.636719 411.015625 415.34375 413.894531 C 416.308594 417.808594 419.664062 418.792969 422.714844 416.101562 Z M 422.714844 416.101562 " fill-opacity="1" fill-rule="nonzero"/><path fill="#494849" d="M 445.171875 396.210938 C 446.011719 395.316406 447.007812 394.582031 447.914062 393.75 C 455.878906 386.484375 464.386719 379.800781 471.503906 371.632812 C 472.34375 370.671875 472.261719 370.363281 471.195312 369.78125 C 461.0625 364.261719 456.1875 355.363281 454.882812 344.199219 C 454.28125 339 454.546875 333.824219 454.964844 328.523438 C 454.710938 329.003906 454.460938 329.484375 454.214844 329.96875 C 448.296875 341.738281 442.460938 353.550781 436.425781 365.257812 C 433.363281 371.191406 432.195312 377.429688 432.398438 384 C 432.601562 390.449219 435.953125 394.800781 442.042969 396.878906 C 443.308594 397.304688 444.238281 397.207031 445.171875 396.210938 Z M 445.171875 396.210938 " fill-opacity="1" fill-rule="nonzero"/><path fill="#494849" d="M 494.871094 238.125 C 485.894531 239.289062 476.941406 239.363281 468.007812 237.726562 C 453.046875 234.988281 441.234375 227.542969 433.132812 214.5 C 430.359375 210.023438 428.273438 205.230469 426.488281 200.0625 C 426.316406 200.648438 426.15625 201.007812 426.097656 201.390625 C 424.726562 209.765625 423.367188 218.144531 421.996094 226.515625 C 420.023438 238.582031 418.011719 250.640625 416.078125 262.71875 C 415.371094 267.082031 414.089844 271.417969 415.65625 275.917969 C 416.753906 279.074219 417.496094 282.359375 418.738281 285.472656 C 421.589844 292.574219 425.429688 299.003906 431.46875 303.886719 C 438.960938 309.945312 447.703125 311.992188 457.140625 311.941406 C 458.683594 311.933594 459.480469 311.460938 460.175781 310.066406 C 470.503906 289.378906 480.890625 268.726562 491.265625 248.0625 C 492.90625 244.785156 494.542969 241.507812 496.246094 238.117188 C 495.636719 238.117188 495.246094 238.074219 494.871094 238.125 Z M 494.871094 238.125 " fill-opacity="1" fill-rule="nonzero"/><path fill="#494849" d="M 326.617188 195.335938 C 326.707031 195.976562 326.773438 196.574219 326.871094 197.175781 C 328.941406 209.851562 331.019531 222.53125 333.082031 235.207031 C 334.90625 246.34375 336.71875 257.484375 338.519531 268.621094 C 338.699219 269.730469 339.1875 270.464844 340.199219 271.078125 C 349.117188 276.53125 358.738281 279.800781 369.148438 280.695312 C 383.886719 281.960938 397.507812 278.585938 410.078125 270.824219 C 410.773438 270.398438 411.195312 269.917969 411.335938 269.015625 C 412.261719 263.113281 413.28125 257.226562 414.246094 251.332031 C 416.675781 236.503906 419.101562 221.675781 421.523438 206.851562 C 422.152344 203.003906 422.773438 199.15625 423.40625 195.316406 C 391.09375 213.539062 358.921875 213.5625 326.617188 195.335938 Z M 326.617188 195.335938 " fill-opacity="1" fill-rule="nonzero"/><path fill="#494849" d="M 323.601562 199.972656 C 322.53125 202.640625 321.683594 204.945312 320.683594 207.179688 C 316.28125 217.078125 309.847656 225.285156 300.457031 230.917969 C 289.101562 237.71875 276.613281 239.40625 263.664062 238.84375 C 260.4375 238.710938 257.21875 238.371094 253.761719 238.109375 C 254.136719 238.90625 254.414062 239.511719 254.714844 240.105469 C 257.21875 245.09375 259.734375 250.085938 262.238281 255.074219 C 271.515625 273.546875 280.800781 292.011719 290.039062 310.5 C 290.566406 311.558594 291.15625 311.96875 292.328125 311.925781 C 294.613281 311.84375 296.902344 311.863281 299.191406 311.609375 C 309.921875 310.402344 318.628906 305.683594 325.003906 296.871094 C 330.082031 289.859375 332.828125 281.871094 334.734375 273.53125 C 335.03125 272.21875 335.28125 270.921875 335.046875 269.558594 C 334.191406 264.546875 333.398438 259.53125 332.574219 254.511719 C 330.164062 239.859375 327.75 225.203125 325.34375 210.546875 C 324.78125 207.140625 324.226562 203.738281 323.601562 199.972656 Z M 323.601562 199.972656 " fill-opacity="1" fill-rule="nonzero"/><path fill="#494849" d="M 287.519531 501.773438 C 288.164062 505.640625 288.699219 509.527344 289.320312 513.644531 C 300.480469 500.992188 311.488281 488.496094 322.753906 475.71875 C 321.953125 475.949219 321.523438 476.054688 321.113281 476.191406 C 310.582031 479.683594 299.804688 481.492188 288.683594 481.132812 C 286.46875 481.058594 284.289062 480.511719 282.058594 480.789062 C 282.089844 481.050781 282.082031 481.335938 282.171875 481.574219 C 284.578125 488.144531 286.378906 494.871094 287.519531 501.773438 Z M 287.519531 501.773438 " fill-opacity="1" fill-rule="nonzero"/><path fill="#494849" d="M 331.6875 548.730469 C 331.921875 548.054688 332.011719 547.800781 332.09375 547.546875 C 339.375 523.964844 346.671875 500.386719 353.949219 476.804688 C 355.296875 472.425781 352.925781 467.011719 348.871094 464.871094 C 347.828125 464.324219 346.988281 464.300781 345.929688 464.933594 C 341.308594 467.671875 336.515625 470.070312 331.582031 472.191406 C 330.628906 472.605469 329.863281 473.160156 329.183594 473.941406 C 316.988281 487.792969 304.769531 501.628906 292.566406 515.484375 C 292.253906 515.835938 291.78125 516.121094 291.800781 516.832031 C 311.167969 519.585938 324.628906 529.882812 331.6875 548.730469 Z M 331.6875 548.730469 " fill-opacity="1" fill-rule="nonzero"/><path fill="#494849" d="M 414.789062 550.964844 C 415.035156 550.433594 414.839844 550.132812 414.742188 549.824219 C 407.199219 525.398438 399.652344 500.96875 392.121094 476.535156 C 391.867188 475.71875 391.410156 475.199219 390.691406 474.800781 C 380.574219 469.222656 370.394531 469.078125 360.105469 474.324219 C 358.6875 475.050781 357.984375 476.0625 357.523438 477.554688 C 350.28125 501.140625 342.984375 524.707031 335.699219 548.28125 C 335.445312 549.113281 335.039062 549.921875 335.085938 551.011719 C 347.78125 544.933594 360.996094 541.800781 374.953125 541.800781 C 388.925781 541.792969 402.15625 544.921875 414.789062 550.964844 Z M 414.789062 550.964844 " fill-opacity="1" fill-rule="nonzero"/><path fill="#494849" d="M 418.261719 548.753906 C 425.386719 529.867188 438.808594 519.601562 458.429688 516.808594 C 458.015625 516.253906 457.769531 515.886719 457.484375 515.566406 C 445.019531 501.425781 432.546875 487.289062 420.089844 473.144531 C 419.632812 472.628906 419.121094 472.246094 418.492188 471.96875 C 413.578125 469.808594 408.808594 467.363281 404.160156 464.671875 C 403.671875 464.386719 403.207031 464.167969 402.585938 464.289062 C 398.558594 465.050781 394.46875 471.78125 395.683594 475.734375 C 402.316406 497.175781 408.945312 518.625 415.574219 540.074219 C 416.414062 542.796875 417.261719 545.527344 418.261719 548.753906 Z M 418.261719 548.753906 " fill-opacity="1" fill-rule="nonzero"/><path fill="#494849" d="M 468.039062 480.808594 C 449.609375 480.71875 452.960938 482.675781 427.058594 475.546875 C 438.300781 488.296875 449.429688 500.917969 460.777344 513.789062 C 461.910156 502.246094 464.175781 491.386719 468.039062 480.808594 Z M 468.039062 480.808594 " fill-opacity="1" fill-rule="nonzero"/><path fill="#494849" d="M 442.753906 122.265625 C 442.949219 122.671875 443.101562 123.089844 443.332031 123.464844 C 460.449219 151.425781 484.65625 170.324219 515.894531 180.21875 C 517.199219 180.628906 518.527344 180.976562 520.15625 181.433594 C 519.636719 180.621094 519.324219 180.097656 518.976562 179.59375 C 503.054688 156.488281 482.429688 138.988281 456.800781 127.46875 C 452.28125 125.4375 447.726562 123.433594 442.921875 122.109375 C 442.816406 121.972656 442.695312 121.890625 442.566406 122.070312 C 442.566406 122.09375 442.695312 122.199219 442.753906 122.265625 Z M 442.753906 122.265625 " fill-opacity="1" fill-rule="nonzero"/><path fill="#494849" d="M 428.128906 192.496094 C 428.96875 195.675781 429.878906 198.839844 431.046875 201.929688 C 437.96875 220.265625 450.800781 231.414062 470.386719 234.425781 C 479.257812 235.800781 488.101562 235.351562 496.949219 234.246094 C 498.023438 234.121094 498.5625 233.574219 499.027344 232.636719 C 506.488281 217.6875 513.996094 202.761719 521.488281 187.835938 C 522.464844 185.894531 522.457031 185.902344 520.433594 185.347656 C 487.628906 176.332031 461.550781 157.957031 442.800781 129.421875 C 441.554688 127.515625 440.355469 125.585938 438.914062 123.335938 C 438.050781 128.535156 437.242188 133.320312 436.453125 138.113281 C 433.90625 153.710938 431.324219 169.304688 428.835938 184.914062 C 428.4375 187.410156 427.453125 189.898438 428.128906 192.496094 Z M 428.128906 192.496094 " fill-opacity="1" fill-rule="nonzero"/><path fill="#494849" d="M 431.144531 118.246094 C 393.628906 109.238281 356.316406 109.230469 318.996094 118.5 C 336.9375 125.96875 355.621094 129.554688 374.992188 129.59375 C 392.765625 129.621094 426.253906 122.910156 431.144531 118.246094 Z M 431.144531 118.246094 " fill-opacity="1" fill-rule="nonzero"/><path fill="#494849" d="M 325.410156 188.585938 C 325.558594 189.511719 325.925781 190.183594 326.773438 190.734375 C 344.671875 202.253906 364.164062 206.949219 385.34375 204.515625 C 398.773438 202.972656 411.105469 198.425781 422.511719 191.199219 C 423.878906 190.335938 424.449219 189.328125 424.695312 187.769531 C 426.375 177.066406 428.152344 166.378906 429.90625 155.683594 C 431.722656 144.609375 433.539062 133.53125 435.375 122.460938 C 435.585938 121.171875 435.261719 121.066406 434.113281 121.53125 C 412.515625 130.386719 390.089844 134.339844 366.726562 133.058594 C 355.359375 132.433594 344.234375 130.605469 333.285156 127.589844 C 326.992188 125.859375 320.871094 123.628906 314.386719 120.960938 C 314.933594 124.230469 315.425781 127.132812 315.898438 130.042969 C 319.074219 149.550781 322.246094 169.074219 325.410156 188.585938 Z M 325.410156 188.585938 " fill-opacity="1" fill-rule="nonzero"/><path fill="#494849" d="M 307.273438 122.015625 C 307.273438 122.070312 307.261719 122.128906 307.253906 122.183594 C 307.304688 122.136719 307.359375 122.101562 307.410156 122.054688 C 307.363281 122.039062 307.320312 122.03125 307.273438 122.015625 Z M 307.273438 122.015625 " fill-opacity="1" fill-rule="nonzero"/><path fill="#494849" d="M 231.097656 181.09375 C 260.234375 172.597656 283.84375 156.253906 301.410156 131.390625 C 303.496094 128.445312 305.664062 125.527344 307.199219 122.234375 C 306.328125 121.988281 305.609375 122.503906 304.859375 122.773438 C 279.164062 132.039062 257.386719 146.949219 239.871094 167.976562 C 236.371094 172.191406 233.078125 176.550781 230.054688 181.132812 C 230.484375 181.378906 230.78125 181.183594 231.097656 181.09375 Z M 231.097656 181.09375 " fill-opacity="1" fill-rule="nonzero"/><path fill="#494849" d="M 251.085938 232.914062 C 251.535156 233.804688 252.140625 234.121094 252.996094 234.234375 C 262.746094 235.5 272.488281 235.914062 282.203125 233.984375 C 294.613281 231.523438 304.816406 225.511719 312.136719 215.011719 C 316.800781 208.328125 319.71875 200.863281 321.699219 193.003906 C 322.003906 191.78125 322.125 190.597656 321.921875 189.359375 C 321.058594 184.246094 320.175781 179.128906 319.335938 174 C 316.597656 157.253906 313.882812 140.503906 311.128906 123.613281 C 310.84375 123.765625 310.71875 123.789062 310.664062 123.871094 C 310.425781 124.246094 310.207031 124.636719 309.976562 125.015625 C 298.777344 143.363281 284.339844 158.519531 265.949219 169.792969 C 254.4375 176.84375 242.101562 181.949219 229.078125 185.453125 C 228.234375 185.675781 227.332031 185.691406 228.050781 187.101562 C 235.777344 202.351562 243.441406 217.628906 251.085938 232.914062 Z M 251.085938 232.914062 " fill-opacity="1" fill-rule="nonzero"/><path fill="#494849" d="M 195.023438 288.796875 C 212.183594 259.296875 221.859375 227.609375 222.742188 193.34375 C 206.136719 223.011719 198.335938 255.253906 195.023438 288.796875 Z M 195.023438 288.796875 " fill-opacity="1" fill-rule="nonzero"/><path fill="#494849" d="M 206.070312 308.585938 C 209.011719 298.851562 211.914062 289.28125 214.925781 279.324219 C 218.296875 285.457031 221.453125 291.171875 224.578125 296.910156 C 228.75 304.574219 233.199219 312.066406 237.96875 319.371094 C 238.550781 320.265625 238.898438 320.484375 239.609375 319.53125 C 240.683594 318.105469 241.898438 316.777344 242.953125 315.335938 C 251.511719 303.734375 254.859375 290.46875 255.105469 276.300781 C 255.269531 267.097656 254.070312 258.007812 252.023438 249.039062 C 250.949219 244.3125 250.199219 239.4375 248.046875 235.058594 C 241.359375 221.476562 234.496094 207.976562 227.699219 194.445312 C 227.4375 193.925781 227.128906 193.433594 226.679688 192.644531 C 226.636719 193.453125 226.613281 193.890625 226.589844 194.332031 C 226.265625 202.492188 225.523438 210.621094 224.234375 218.683594 C 220.949219 239.242188 214.574219 258.824219 205.371094 277.484375 C 202.132812 284.054688 198.585938 290.453125 194.753906 296.699219 C 194.4375 297.21875 193.777344 297.710938 194.578125 298.417969 C 198.398438 301.769531 202.191406 305.152344 206.070312 308.585938 Z M 206.070312 308.585938 " fill-opacity="1" fill-rule="nonzero"/><path fill="#494849" d="M 202.921875 323.851562 C 203.664062 320.160156 204.292969 316.988281 204.9375 313.824219 C 205.035156 313.34375 205.351562 312.871094 204.863281 312.425781 C 202.253906 310.101562 199.640625 307.777344 197.03125 305.453125 C 198.90625 311.519531 201.015625 317.414062 202.921875 323.851562 Z M 202.921875 323.851562 " fill-opacity="1" fill-rule="nonzero"/><path fill="#494849" d="M 204.179688 391.71875 C 202.304688 382.5 201.171875 373.199219 200.722656 363.800781 C 200.347656 355.914062 200.496094 348.050781 201.039062 340.175781 C 201.246094 337.085938 202.058594 334.011719 201.15625 330.855469 C 199.191406 323.976562 197.085938 317.160156 194.625 310.441406 C 194.378906 309.75 194.054688 309.082031 193.605469 308.023438 C 192.996094 320.191406 191.8125 340.15625 197.871094 378.75 C 200.527344 395.617188 204.089844 412.296875 208.816406 428.78125 C 209.046875 424.835938 209.21875 420.886719 209.542969 416.949219 C 209.8125 413.65625 209.324219 410.558594 208.246094 407.429688 C 206.476562 402.308594 205.261719 397.019531 204.179688 391.71875 Z M 204.179688 391.71875 " fill-opacity="1" fill-rule="nonzero"/><path fill="#494849" d="M 222.78125 439.800781 C 219 433.746094 215.902344 427.648438 212.960938 421.351562 C 212.773438 423.78125 212.59375 426.21875 212.390625 428.65625 C 212.121094 431.933594 211.824219 435.210938 211.574219 438.496094 C 211.539062 438.96875 211.191406 439.777344 212.113281 439.785156 C 215.585938 439.828125 219.058594 439.800781 222.78125 439.800781 Z M 222.78125 439.800781 " fill-opacity="1" fill-rule="nonzero"/><path fill="#494849" d="M 213.988281 447.808594 C 214.769531 460.410156 245.4375 534.328125 254.984375 546.59375 C 255.988281 528.9375 253.453125 512.070312 247.238281 495.78125 C 240.121094 477.121094 229.035156 461.191406 213.988281 447.808594 Z M 213.988281 447.808594 " fill-opacity="1" fill-rule="nonzero"/><path fill="#494849" d="M 260.707031 546.128906 C 267.988281 537.863281 275.183594 529.515625 282.609375 521.378906 C 284.910156 518.859375 285.960938 516.511719 285.515625 512.949219 C 284.160156 502.085938 282.050781 491.453125 278.167969 481.199219 C 277.777344 480.1875 277.214844 479.746094 276.171875 479.527344 C 266.0625 477.480469 256.84375 473.355469 248.414062 467.445312 C 239.617188 461.273438 232.34375 453.601562 226.132812 444.863281 C 225.734375 444.300781 225.503906 443.535156 224.566406 443.542969 C 221.40625 443.558594 218.25 443.550781 214.875 443.550781 C 246.058594 471.601562 260.617188 506.386719 258.683594 548.363281 C 259.46875 547.5 260.09375 546.816406 260.707031 546.128906 Z M 260.707031 546.128906 " fill-opacity="1" fill-rule="nonzero"/><path fill="#494849" d="M 261.164062 556.921875 C 272.730469 577.140625 299.8125 608.828125 309.335938 613.449219 C 302.324219 586.710938 286.351562 567.878906 261.164062 556.921875 Z M 261.164062 556.921875 " fill-opacity="1" fill-rule="nonzero"/><path fill="#494849" d="M 329.609375 554.109375 C 326.917969 545.046875 322.6875 536.910156 315.382812 530.65625 C 308.21875 524.511719 299.730469 521.566406 290.511719 520.363281 C 289.335938 520.214844 288.398438 520.109375 287.421875 521.226562 C 279.050781 530.84375 270.601562 540.382812 262.171875 549.953125 C 261.480469 550.734375 260.8125 551.535156 260.101562 552.359375 C 287.046875 563.378906 304.425781 582.757812 312.441406 610.710938 C 312.613281 610.335938 312.75 610.09375 312.832031 609.832031 C 318.40625 591.808594 323.976562 573.78125 329.550781 555.75 C 329.722656 555.203125 329.773438 554.664062 329.609375 554.109375 Z M 329.609375 554.109375 " fill-opacity="1" fill-rule="nonzero"/><path fill="#494849" d="M 315.929688 618.691406 C 333.984375 631.222656 353.414062 638.535156 375.269531 638.484375 C 396.929688 638.421875 416.199219 631.132812 434.109375 618.703125 C 414.636719 612.480469 395.023438 609.496094 375.015625 609.496094 C 355.003906 609.496094 335.390625 612.472656 315.929688 618.691406 Z M 315.929688 618.691406 " fill-opacity="1" fill-rule="nonzero"/><path fill="#494849" d="M 417.457031 558.449219 C 416.925781 556.726562 416.039062 555.765625 414.480469 554.992188 C 399.90625 547.71875 384.546875 544.589844 368.273438 545.828125 C 356.414062 546.71875 345.277344 549.988281 334.71875 555.390625 C 333.621094 555.945312 333.066406 556.6875 332.707031 557.84375 C 327.585938 574.550781 322.410156 591.246094 317.257812 607.941406 C 316.550781 610.207031 315.863281 612.480469 315.113281 614.941406 C 355.132812 602.730469 394.882812 602.738281 434.730469 614.902344 C 434.714844 614.535156 434.730469 614.414062 434.699219 614.316406 C 428.941406 595.695312 423.140625 577.085938 417.457031 558.449219 Z M 417.457031 558.449219 " fill-opacity="1" fill-rule="nonzero"/><path fill="#494849" d="M 440.796875 613.761719 C 460.695312 597.765625 475.882812 578.242188 489.234375 556.84375 C 466.605469 565.246094 446.363281 587.300781 440.796875 613.761719 Z M 440.796875 613.761719 " fill-opacity="1" fill-rule="nonzero"/><path fill="#494849" d="M 485.40625 547.253906 C 477.71875 538.523438 470.023438 529.792969 462.335938 521.0625 C 461.902344 520.574219 461.558594 520.066406 460.695312 520.175781 C 452.085938 521.234375 443.960938 523.605469 436.875 528.832031 C 428.558594 534.96875 423.71875 543.421875 420.652344 553.078125 C 420.261719 554.316406 420.292969 555.441406 420.675781 556.664062 C 424.792969 569.886719 428.878906 583.117188 432.976562 596.347656 C 434.4375 601.085938 435.890625 605.828125 437.503906 611.054688 C 437.773438 610.183594 437.902344 609.816406 438.007812 609.441406 C 442.042969 594.710938 449.511719 581.984375 460.378906 571.273438 C 468.488281 563.289062 477.871094 557.21875 488.460938 553.058594 C 489.90625 552.496094 489.800781 552.097656 488.863281 551.136719 C 487.640625 549.90625 486.554688 548.558594 485.40625 547.253906 Z M 485.40625 547.253906 " fill-opacity="1" fill-rule="nonzero"/><path fill="#494849" d="M 535.109375 443.535156 C 532.191406 443.535156 529.476562 443.578125 526.769531 443.511719 C 525.757812 443.488281 525.148438 443.828125 524.574219 444.660156 C 522.261719 448.035156 519.71875 451.222656 516.976562 454.261719 C 505.125 467.371094 490.84375 476.347656 473.339844 479.753906 C 472.460938 479.925781 472.132812 480.375 471.863281 481.09375 C 467.519531 492.457031 465.171875 504.246094 464.242188 516.351562 C 464.167969 517.34375 464.484375 518.03125 465.121094 518.746094 C 468.914062 523.003906 472.664062 527.296875 476.445312 531.578125 C 481.320312 537.113281 486.210938 542.640625 491.300781 548.40625 C 489.34375 506.378906 503.910156 471.59375 535.109375 443.535156 Z M 535.109375 443.535156 " fill-opacity="1" fill-rule="nonzero"/><path fill="#494849" d="M 502.394531 496.679688 C 496.394531 512.738281 494.003906 529.335938 495.171875 546.472656 C 513.039062 515.296875 526.074219 482.128906 536.503906 447.351562 C 520.824219 461.199219 509.542969 477.515625 502.394531 496.679688 Z M 502.394531 496.679688 " fill-opacity="1" fill-rule="nonzero"/><path fill="#494849" d="M 538.101562 435.203125 C 537.757812 431.023438 537.414062 426.855469 537.074219 422.675781 C 534.269531 428.519531 531.316406 434.175781 527.835938 439.828125 C 530.488281 439.828125 532.835938 439.835938 535.175781 439.828125 C 537.414062 439.820312 538.414062 438.722656 538.183594 436.539062 C 538.140625 436.09375 538.140625 435.644531 538.101562 435.203125 Z M 538.101562 435.203125 " fill-opacity="1" fill-rule="nonzero"/><path fill="#494849" d="M 556.515625 307.875 C 556.207031 308.371094 556.09375 308.496094 556.035156 308.65625 C 553.296875 315.796875 550.996094 323.085938 548.941406 330.457031 C 548.761719 331.109375 548.78125 331.777344 548.84375 332.453125 C 549.1875 336.128906 549.609375 339.796875 549.824219 343.46875 C 550.46875 354.210938 550.132812 364.921875 548.941406 375.613281 C 547.546875 388.09375 544.933594 400.289062 540.855469 412.164062 C 540.601562 412.90625 540.359375 413.640625 540.375 414.441406 C 540.488281 419.398438 540.863281 424.34375 541.410156 429.300781 C 551.503906 389.578125 558.734375 349.5 556.515625 307.875 Z M 556.515625 307.875 " fill-opacity="1" fill-rule="nonzero"/><path fill="#494849" d="M 221.503906 329.476562 C 220.6875 335.632812 220.183594 341.8125 220.011719 348.023438 C 219.480469 367.238281 221.917969 386.023438 228.195312 404.242188 C 232.933594 418.003906 239.601562 430.671875 249.734375 441.292969 C 261.449219 453.578125 275.671875 460.320312 292.792969 460.085938 C 307.835938 459.886719 321.472656 454.695312 334.738281 447.441406 C 313.132812 430.066406 292.6875 411.765625 273.628906 391.949219 C 254.585938 372.148438 237.089844 351.089844 221.84375 327.890625 C 221.691406 328.605469 221.566406 329.03125 221.503906 329.46875 Z M 221.503906 329.476562 " fill-opacity="1" fill-rule="nonzero"/><path fill="#494849" d="M 511.117188 428.574219 C 523.359375 409.246094 528.789062 387.789062 530.550781 365.234375 C 531.195312 356.96875 531.148438 348.699219 530.550781 340.425781 C 530.25 336.328125 529.875 332.234375 529.15625 327.945312 C 528.808594 328.402344 528.601562 328.648438 528.421875 328.914062 C 512.527344 352.972656 494.015625 374.894531 473.878906 395.484375 C 456.140625 413.609375 437.242188 430.460938 417.496094 446.371094 C 416.40625 447.246094 416.316406 447.578125 417.644531 448.28125 C 428.28125 453.863281 439.320312 458.199219 451.359375 459.628906 C 462.984375 461.011719 474.066406 459.351562 484.507812 453.96875 C 495.847656 448.117188 504.367188 439.230469 511.109375 428.578125 Z M 511.117188 428.574219 " fill-opacity="1" fill-rule="nonzero"/></svg>